<?xml version="1.0" encoding="UTF-8" standalone="no"?>
<!-- Created with Inkscape (http://www.inkscape.org/) -->

<svg
   xmlns:dc="http://purl.org/dc/elements/1.1/"
   xmlns:cc="http://creativecommons.org/ns#"
   xmlns:rdf="http://www.w3.org/1999/02/22-rdf-syntax-ns#"
   xmlns:svg="http://www.w3.org/2000/svg"
   xmlns="http://www.w3.org/2000/svg"
   xmlns:sodipodi="http://sodipodi.sourceforge.net/DTD/sodipodi-0.dtd"
   xmlns:inkscape="http://www.inkscape.org/namespaces/inkscape"
   width="744.09448819"
   height="1052.3622047"
   id="svg15724"
   version="1.1"
   inkscape:version="0.48.4 r9939"
   sodipodi:docname="New document 11">
  <defs
     id="defs15726">
    <clipPath
       id="clipPath15920"
       clipPathUnits="userSpaceOnUse">
      <path
         id="path15922"
         clip-rule="evenodd"
         d="m 51.24,186.84 689.64,0 0,238.2 -689.64,0 0,-238.2 z" />
    </clipPath>
    <clipPath
       id="clipPath15908"
       clipPathUnits="userSpaceOnUse">
      <path
         id="path15910"
         clip-rule="evenodd"
         d="m 51.24,186.84 689.64,0 0,238.2 -689.64,0 0,-238.2 z" />
    </clipPath>
    <clipPath
       id="clipPath15896"
       clipPathUnits="userSpaceOnUse">
      <path
         id="path15898"
         clip-rule="evenodd"
         d="m 51.24,186.84 689.64,0 0,238.2 -689.64,0 0,-238.2 z" />
    </clipPath>
    <clipPath
       id="clipPath15884"
       clipPathUnits="userSpaceOnUse">
      <path
         id="path15886"
         clip-rule="evenodd"
         d="m 51.24,186.84 689.64,0 0,238.2 -689.64,0 0,-238.2 z" />
    </clipPath>
    <clipPath
       id="clipPath15872"
       clipPathUnits="userSpaceOnUse">
      <path
         id="path15874"
         clip-rule="evenodd"
         d="m 51.24,186.84 689.64,0 0,238.2 -689.64,0 0,-238.2 z" />
    </clipPath>
    <clipPath
       id="clipPath15860"
       clipPathUnits="userSpaceOnUse">
      <path
         id="path15862"
         clip-rule="evenodd"
         d="m 51.24,186.84 689.64,0 0,238.2 -689.64,0 0,-238.2 z" />
    </clipPath>
    <clipPath
       id="clipPath15848"
       clipPathUnits="userSpaceOnUse">
      <path
         id="path15850"
         clip-rule="evenodd"
         d="m 51.24,186.84 689.64,0 0,238.2 -689.64,0 0,-238.2 z" />
    </clipPath>
    <clipPath
       id="clipPath15836"
       clipPathUnits="userSpaceOnUse">
      <path
         id="path15838"
         clip-rule="evenodd"
         d="m 51.24,186.84 689.64,0 0,238.2 -689.64,0 0,-238.2 z" />
    </clipPath>
    <clipPath
       id="clipPath15824"
       clipPathUnits="userSpaceOnUse">
      <path
         id="path15826"
         clip-rule="evenodd"
         d="m 51.24,186.84 689.64,0 0,238.2 -689.64,0 0,-238.2 z" />
    </clipPath>
    <clipPath
       id="clipPath15812"
       clipPathUnits="userSpaceOnUse">
      <path
         id="path15814"
         clip-rule="evenodd"
         d="m 51.24,186.84 689.64,0 0,238.2 -689.64,0 0,-238.2 z" />
    </clipPath>
    <clipPath
       id="clipPath15800"
       clipPathUnits="userSpaceOnUse">
      <path
         id="path15802"
         clip-rule="evenodd"
         d="m 51.24,186.84 689.64,0 0,238.2 -689.64,0 0,-238.2 z" />
    </clipPath>
    <clipPath
       id="clipPath15788"
       clipPathUnits="userSpaceOnUse">
      <path
         id="path15790"
         clip-rule="evenodd"
         d="m 51.24,186.84 689.64,0 0,238.2 -689.64,0 0,-238.2 z" />
    </clipPath>
    <clipPath
       id="clipPath15776"
       clipPathUnits="userSpaceOnUse">
      <path
         id="path15778"
         clip-rule="evenodd"
         d="m 51.24,186.84 689.64,0 0,238.2 -689.64,0 0,-238.2 z" />
    </clipPath>
    <clipPath
       id="clipPath15756"
       clipPathUnits="userSpaceOnUse">
      <path
         id="path15758"
         clip-rule="evenodd"
         d="m 50.4,186.12 691.2,0 0,239.88 -691.2,0 0,-239.88 z" />
    </clipPath>
    <clipPath
       id="clipPath15746"
       clipPathUnits="userSpaceOnUse">
      <path
         id="path15748"
         clip-rule="evenodd"
         d="m 50.4,186.12 691.2,0 0,239.88 -691.2,0 0,-239.88 z" />
    </clipPath>
  </defs>
  <sodipodi:namedview
     id="base"
     pagecolor="#ffffff"
     bordercolor="#666666"
     borderopacity="1.0"
     inkscape:pageopacity="0.0"
     inkscape:pageshadow="2"
     inkscape:zoom="0.98994949"
     inkscape:cx="-624.83477"
     inkscape:cy="602.48872"
     inkscape:document-units="px"
     inkscape:current-layer="layer1"
     showgrid="false"
     inkscape:window-width="1536"
     inkscape:window-height="897"
     inkscape:window-x="-8"
     inkscape:window-y="-8"
     inkscape:window-maximized="1" />
  <metadata
     id="metadata15729">
    <rdf:RDF>
      <cc:Work
         rdf:about="">
        <dc:format>image/svg+xml</dc:format>
        <dc:type
           rdf:resource="http://purl.org/dc/dcmitype/StillImage" />
        <dc:title></dc:title>
      </cc:Work>
    </rdf:RDF>
  </metadata>
  <g
     inkscape:label="Layer 1"
     inkscape:groupmode="layer"
     id="layer1">
    <path
       inkscape:connector-curvature="0"
       d="m -689.57291,449.55392 104.40375,0 0,-206.95 -104.40375,0 0,206.95 z"
       style="fill:#c0504d;fill-opacity:1;fill-rule:evenodd;stroke:none"
       id="path15764" />
    <path
       inkscape:connector-curvature="0"
       d="m -454.66041,449.55392 104.40375,0 0,-206.0875 -104.40375,0 0,206.0875 z"
       style="fill:#9bbb59;fill-opacity:1;fill-rule:evenodd;stroke:none"
       id="path15766" />
    <path
       inkscape:connector-curvature="0"
       d="m -924.46041,449.55392 104.455,0 0,-213.0375 -104.455,0 0,213.0375 z"
       style="fill:#4f81bd;fill-opacity:1;fill-rule:nonzero;stroke:none"
       id="path15768" />
    <path
       inkscape:connector-curvature="0"
       d="m -960.42849,449.55392 643.0932,0"
       style="fill:none;stroke:#000000;stroke-width:1.75500011;stroke-linecap:butt;stroke-linejoin:round;stroke-miterlimit:10;stroke-opacity:1;stroke-dasharray:none"
       id="path15770"
       sodipodi:nodetypes="cc" />
    <g
       id="g15772"
       transform="matrix(1.25,0,0,-1.25,-1185.2854,737.51642)">
      <g
         id="g15774"
         clip-path="url(#clipPath15776)">
        <text
           transform="matrix(1,0,0,-1,225.07,406.27)"
           id="text15780">
          <tspan
             style="font-size:16.84799957px;font-variant:normal;font-weight:normal;writing-mode:lr-tb;fill:#404040;fill-opacity:1;fill-rule:nonzero;stroke:none;font-family:Calibri;-inkscape-font-specification:Calibri"
             x="0 8.5419359 17.083872 21.329569 29.871504 38.413441"
             y="0"
             sodipodi:role="line"
             id="tspan15782">97.90%</tspan>
        </text>
      </g>
    </g>
    <g
       id="g15784"
       transform="matrix(1.25,0,0,-1.25,-1185.2854,737.51642)">
      <g
         id="g15786"
         clip-path="url(#clipPath15788)">
        <text
           transform="matrix(1,0,0,-1,413.02,406.27)"
           id="text15792">
          <tspan
             style="font-size:16.84799957px;font-variant:normal;font-weight:normal;writing-mode:lr-tb;fill:#404040;fill-opacity:1;fill-rule:nonzero;stroke:none;font-family:Calibri;-inkscape-font-specification:Calibri"
             x="0 8.5419359 17.083872 21.329569 29.871504 38.413441"
             y="0"
             sodipodi:role="line"
             id="tspan15794">95.10%</tspan>
        </text>
      </g>
    </g>
    <g
       id="g15796"
       transform="matrix(1.25,0,0,-1.25,-1185.2854,737.51642)">
      <g
         id="g15798"
         clip-path="url(#clipPath15800)">
        <text
           transform="matrix(1,0,0,-1,600.98,406.27)"
           id="text15804">
          <tspan
             style="font-size:16.84799957px;font-variant:normal;font-weight:normal;writing-mode:lr-tb;fill:#404040;fill-opacity:1;fill-rule:nonzero;stroke:none;font-family:Calibri;-inkscape-font-specification:Calibri"
             x="0 8.5419359 17.083872 21.329569 29.871504 38.346046"
             y="0"
             sodipodi:role="line"
             id="tspan15806">94.70%</tspan>
        </text>
      </g>
    </g>
    <g
       id="g15808"
       transform="matrix(1.25,0,0,-1.25,-1148.9199,737.51642)">
      <g
         id="g15810"
         clip-path="url(#clipPath15812)">
        <text
           transform="matrix(1,0,0,-1,120.26,225.55)"
           id="text15816">
          <tspan
             style="font-size:16.84799957px;font-variant:normal;font-weight:normal;writing-mode:lr-tb;fill:#595959;fill-opacity:1;fill-rule:nonzero;stroke:none;font-family:Calibri;-inkscape-font-specification:Calibri"
             x="0 8.5200357"
             y="0"
             sodipodi:role="line"
             id="tspan15818">0%</tspan>
        </text>
      </g>
    </g>
    <g
       id="g15820"
       transform="matrix(1.25,0,0,-1.25,-1148.9199,737.51642)">
      <g
         id="g15822"
         clip-path="url(#clipPath15824)">
        <text
           transform="matrix(1,0,0,-1,111.72,260.38)"
           id="text15828">
          <tspan
             style="font-size:16.84799957px;font-variant:normal;font-weight:normal;writing-mode:lr-tb;fill:#595959;fill-opacity:1;fill-rule:nonzero;stroke:none;font-family:Calibri;-inkscape-font-specification:Calibri"
             x="0 8.5439959 17.087992"
             y="0"
             sodipodi:role="line"
             id="tspan15830">20%</tspan>
        </text>
      </g>
    </g>
    <g
       id="g15832"
       transform="matrix(1.25,0,0,-1.25,-1148.9199,737.51642)">
      <g
         id="g15834"
         clip-path="url(#clipPath15836)">
        <text
           transform="matrix(1,0,0,-1,111.72,295.22)"
           id="text15840">
          <tspan
             style="font-size:16.87199974px;font-variant:normal;font-weight:normal;writing-mode:lr-tb;fill:#595959;fill-opacity:1;fill-rule:nonzero;stroke:none;font-family:Calibri;-inkscape-font-specification:Calibri"
             x="0 8.5440044 17.088009"
             y="0"
             sodipodi:role="line"
             id="tspan15842">40%</tspan>
        </text>
      </g>
    </g>
    <g
       id="g15844"
       transform="matrix(1.25,0,0,-1.25,-1148.9199,737.51642)">
      <g
         id="g15846"
         clip-path="url(#clipPath15848)">
        <text
           transform="matrix(1,0,0,-1,111.72,330.05)"
           id="text15852">
          <tspan
             style="font-size:16.84799957px;font-variant:normal;font-weight:normal;writing-mode:lr-tb;fill:#595959;fill-opacity:1;fill-rule:nonzero;stroke:none;font-family:Calibri;-inkscape-font-specification:Calibri"
             x="0 8.5439959 17.087992"
             y="0"
             sodipodi:role="line"
             id="tspan15854">60%</tspan>
        </text>
      </g>
    </g>
    <g
       id="g15856"
       transform="matrix(1.25,0,0,-1.25,-1148.9199,737.51642)">
      <g
         id="g15858"
         clip-path="url(#clipPath15860)">
        <text
           transform="matrix(1,0,0,-1,111.72,364.87)"
           id="text15864">
          <tspan
             style="font-size:16.84799957px;font-variant:normal;font-weight:normal;writing-mode:lr-tb;fill:#595959;fill-opacity:1;fill-rule:nonzero;stroke:none;font-family:Calibri;-inkscape-font-specification:Calibri"
             x="0 8.5439959 17.087992"
             y="0"
             sodipodi:role="line"
             id="tspan15866">80%</tspan>
        </text>
      </g>
    </g>
    <g
       id="g15868"
       transform="matrix(1.25,0,0,-1.25,-1148.9199,737.51642)">
      <g
         id="g15870"
         clip-path="url(#clipPath15872)">
        <text
           transform="matrix(1,0,0,-1,103.18,399.7)"
           id="text15876">
          <tspan
             style="font-size:16.84799957px;font-variant:normal;font-weight:normal;writing-mode:lr-tb;fill:#595959;fill-opacity:1;fill-rule:nonzero;stroke:none;font-family:Calibri;-inkscape-font-specification:Calibri"
             x="0 8.5439959 17.087992 25.631989"
             y="0"
             sodipodi:role="line"
             id="tspan15878">100%</tspan>
        </text>
      </g>
    </g>
    <g
       id="g15880"
       transform="matrix(1.25,0,0,-1.25,-1185.2854,737.51642)">
      <g
         id="g15882"
         clip-path="url(#clipPath15884)">
        <text
           transform="matrix(1,0,0,-1,206.69,203.66)"
           id="text15888">
          <tspan
             style="font-size:16.87199974px;font-variant:normal;font-weight:normal;writing-mode:lr-tb;fill:#595959;fill-opacity:1;fill-rule:nonzero;stroke:none;font-family:Calibri;-inkscape-font-specification:Calibri"
             x="0 8.756568 14.813616 18.626688 27.383257 33.035378 41.521992 47.17411 55.896935 63.573696 72.06031 80.816879"
             y="0"
             sodipodi:role="line"
             id="tspan15890">print_tokens</tspan>
        </text>
      </g>
    </g>
    <g
       id="g15892"
       transform="matrix(1.25,0,0,-1.25,-1185.2854,737.51642)">
      <g
         id="g15894"
         clip-path="url(#clipPath15896)">
        <text
           transform="matrix(1,0,0,-1,407.93,203.66)"
           id="text15900">
          <tspan
             style="font-size:16.87199974px;font-variant:normal;font-weight:normal;writing-mode:lr-tb;fill:#595959;fill-opacity:1;fill-rule:nonzero;stroke:none;font-family:Calibri;-inkscape-font-specification:Calibri"
             x="0 6.5294638 13.716936 22.507248 31.027609 39.817921 48.793823 52.674385"
             y="0"
             sodipodi:role="line"
             id="tspan15902">schedule</tspan>
        </text>
      </g>
    </g>
    <g
       id="g15904"
       transform="matrix(1.25,0,0,-1.25,-1185.2854,737.51642)">
      <g
         id="g15906"
         clip-path="url(#clipPath15908)">
        <text
           transform="matrix(1,0,0,-1,601.08,203.66)"
           id="text15912">
          <tspan
             style="font-size:16.87199974px;font-variant:normal;font-weight:normal;writing-mode:lr-tb;fill:#595959;fill-opacity:1;fill-rule:nonzero;stroke:none;font-family:Calibri;-inkscape-font-specification:Calibri"
             x="0 5.8377118 14.3412 23.097769 26.910839 34.992527 42.129383"
             y="0"
             sodipodi:role="line"
             id="tspan15914">replace</tspan>
        </text>
      </g>
    </g>
    <g
       id="g15916"
       transform="matrix(1.25,0,0,-1.25,-1148.9199,737.51642)">
      <g
         id="g15918"
         clip-path="url(#clipPath15920)">
        <text
           transform="matrix(-4.4e-8,1,1,4.4e-8,92.472,283.22)"
           id="text15924">
          <tspan
             style="font-size:18.62400055px;font-variant:normal;font-weight:normal;writing-mode:lr-tb;fill:#595959;fill-opacity:1;fill-rule:nonzero;stroke:none;font-family:Calibri;-inkscape-font-specification:Calibri"
             x="0 10.783296 18.661247 26.464705 36.316799 42.816574 51.774719 59.652672"
             y="0"
             sodipodi:role="line"
             id="tspan15926">Accuracy</tspan>
        </text>
      </g>
    </g>
    <path
       inkscape:connector-curvature="0"
       d="m -1061.5602,503.82892 770.98631,0 0,-297.6375 -770.98631,0 z"
       style="fill:none;stroke:#000000;stroke-width:1.75500011;stroke-linecap:butt;stroke-linejoin:round;stroke-miterlimit:10;stroke-opacity:1;stroke-dasharray:none"
       id="path15928"
       sodipodi:nodetypes="ccccc" />
  </g>
</svg>
